<?xml version="1.0" encoding="UTF-8" ?>
<!DOCTYPE svg PUBLIC "-//W3C//DTD SVG 1.1//EN" "http://www.w3.org/Graphics/SVG/1.1/DTD/svg11.dtd">
<svg width="125pt" height="41pt" viewBox="0 0 125 41" version="1.1" xmlns="http://www.w3.org/2000/svg">
<g id="#fefefeff">
<path fill="honeydew" opacity="1.00" d=" M 11.51 8.38 C 10.48 6.10 13.85 3.63 15.69 5.44 C 17.24 6.15 16.69 7.84 16.05 8.99 C 14.10 12.43 15.16 16.85 17.54 19.81 C 18.99 17.14 18.08 14.16 18.37 11.33 C 19.45 9.37 22.66 10.04 23.20 12.11 C 23.74 14.31 21.54 15.71 20.69 17.49 C 18.77 20.75 20.33 24.53 20.46 28.00 C 20.24 31.62 15.48 33.01 12.74 31.23 C 10.85 29.77 9.55 27.68 7.58 26.31 C 5.22 24.31 0.97 27.62 0.00 23.54 L 0.00 21.48 C 0.32 19.31 3.40 18.05 4.63 20.18 C 5.74 22.41 7.78 23.63 10.30 23.37 C 9.61 19.07 6.51 15.89 3.64 12.87 C 2.85 10.47 5.81 8.62 7.74 10.05 C 9.75 10.94 8.83 13.43 8.75 15.08 C 9.80 17.10 11.25 18.86 13.06 20.24 C 12.67 16.28 13.16 12.11 11.51 8.38 Z" />
<path fill="honeydew" opacity="1.00" d=" M 26.47 32.07 C 29.27 23.32 32.08 14.57 34.89 5.82 C 36.88 5.82 38.88 5.82 40.87 5.82 C 43.67 14.57 46.46 23.32 49.26 32.07 C 47.15 32.07 45.04 32.07 42.94 32.07 C 42.41 30.22 41.88 28.37 41.36 26.52 C 38.78 26.52 36.20 26.52 33.62 26.52 C 33.06 28.37 32.51 30.22 31.95 32.07 C 30.12 32.07 28.30 32.07 26.47 32.07 M 37.57 11.18 C 36.87 15.15 35.58 18.98 34.52 22.87 C 36.52 22.86 38.52 22.86 40.53 22.86 C 39.52 18.97 38.29 15.14 37.57 11.18 Z" />
<path fill="honeydew" opacity="1.00" d=" M 53.85 5.82 C 55.88 5.82 57.91 5.82 59.95 5.82 C 59.95 13.21 59.95 20.60 59.95 27.99 C 62.15 28.00 64.35 28.00 66.55 28.01 C 66.55 29.36 66.55 30.72 66.54 32.07 C 62.31 32.07 58.08 32.07 53.84 32.07 C 53.84 23.32 53.84 14.57 53.85 5.82 Z" />
<path fill="honeydew" opacity="1.00" d=" M 72.05 5.82 C 74.08 5.82 76.11 5.82 78.14 5.82 C 78.14 14.57 78.14 23.32 78.14 32.07 C 76.11 32.07 74.08 32.07 72.05 32.07 C 72.04 23.32 72.05 14.57 72.05 5.82 Z" />
<path fill="honeydew" opacity="1.00" d=" M 82.73 5.82 C 84.90 5.82 87.06 5.82 89.23 5.82 C 90.61 11.95 92.30 18.02 93.39 24.22 C 94.70 18.05 96.31 11.95 97.78 5.82 C 99.74 5.82 101.71 5.82 103.67 5.82 C 101.08 14.57 98.50 23.31 95.89 32.05 C 94.13 32.07 92.37 32.08 90.62 32.12 C 87.89 23.39 85.37 14.59 82.73 5.82 Z" />
<path fill="honeydew" opacity="1.00" d=" M 108.19 5.82 C 112.61 5.82 117.03 5.82 121.45 5.82 C 121.45 7.17 121.46 8.52 121.46 9.87 C 119.09 9.88 116.71 9.87 114.33 9.89 C 114.34 12.14 114.34 14.39 114.34 16.65 C 116.41 16.65 118.48 16.65 120.56 16.65 C 120.56 18.00 120.56 19.35 120.57 20.70 C 118.49 20.70 116.41 20.70 114.34 20.70 C 114.34 23.14 114.34 25.57 114.34 28.01 C 116.71 28.01 119.08 28.01 121.46 28.01 C 121.46 29.36 121.45 30.71 121.45 32.07 C 117.03 32.07 112.61 32.07 108.19 32.06 C 108.18 23.32 108.19 14.57 108.19 5.82 Z" />
</g>
</svg>
