<?xml version="1.0" encoding="UTF-8" ?>
<!DOCTYPE svg PUBLIC "-//W3C//DTD SVG 1.1//EN" "http://www.w3.org/Graphics/SVG/1.1/DTD/svg11.dtd">
<svg width="510pt" height="200pt" viewBox="0 0 510 200" version="1.1" xmlns="http://www.w3.org/2000/svg">
<g id="#ffffffff">
<path fill="honeydew" opacity="1.00" d=" M 6.25 25.24 C 26.04 14.75 49.05 12.07 71.16 13.16 C 86.62 14.02 102.03 17.53 116.03 24.22 C 119.21 25.51 118.01 29.38 118.21 32.04 C 118.52 52.50 117.76 73.29 111.92 93.03 C 104.06 117.41 85.01 137.49 61.96 148.25 C 39.45 137.66 20.80 118.26 12.61 94.61 C 5.50 72.26 5.49 48.44 6.25 25.24 M 7.52 26.19 C 7.05 37.46 7.15 48.74 8.09 59.99 C 9.37 76.14 11.76 92.76 19.90 107.05 C 29.31 124.19 44.45 138.08 62.04 146.52 C 87.08 134.45 107.38 111.18 112.71 83.52 C 116.47 64.68 117.48 45.26 116.28 26.10 C 100.97 18.55 83.88 15.12 66.89 14.57 C 46.60 13.92 25.85 17.14 7.52 26.19 Z" />
<path fill="honeydew" opacity="1.00" d=" M 219.64 31.85 C 222.05 26.88 227.66 24.50 232.93 24.21 C 238.44 23.82 244.75 23.94 249.03 27.95 C 252.45 31.30 252.69 36.32 252.50 40.81 C 248.82 40.84 245.14 40.83 241.47 40.82 C 241.20 37.35 240.52 32.27 236.01 32.24 C 230.53 31.66 227.97 38.74 231.48 42.47 C 237.19 48.34 246.60 49.73 251.02 57.04 C 255.72 64.62 253.24 77.36 243.81 79.91 C 237.09 81.70 229.30 82.21 223.08 78.61 C 217.87 75.33 217.01 68.57 217.55 62.95 C 221.44 62.90 225.33 62.90 229.22 63.15 C 229.33 65.66 228.83 68.45 230.39 70.64 C 232.86 73.94 239.16 73.82 240.87 69.78 C 242.36 66.61 241.07 62.75 238.21 60.82 C 232.71 56.56 225.70 54.23 221.27 48.64 C 217.45 43.99 217.40 37.22 219.64 31.85 Z" />
<path fill="honeydew" opacity="1.00" d=" M 321.01 31.92 C 323.35 27.02 328.80 24.55 334.00 24.21 C 339.38 23.79 345.73 24.05 349.54 28.45 C 353.24 32.03 353.18 37.51 353.65 42.27 C 349.84 42.30 346.03 42.28 342.22 42.30 C 341.81 39.39 341.96 36.24 340.43 33.62 C 337.82 30.94 332.78 32.46 331.58 35.86 C 330.20 39.41 330.19 43.29 329.92 47.04 C 329.98 53.98 329.43 61.06 331.08 67.87 C 331.74 70.79 334.27 72.69 337.09 73.32 C 342.56 72.33 342.63 65.95 342.48 61.56 C 346.29 61.57 350.10 61.56 353.92 61.58 C 354.01 67.32 353.26 73.87 348.73 77.93 C 344.02 81.59 337.50 81.74 331.87 80.71 C 326.85 80.03 322.13 76.73 320.34 71.90 C 317.88 65.57 318.21 58.62 318.19 51.94 C 318.19 45.23 317.95 38.09 321.01 31.92 Z" />
<path fill="honeydew" opacity="1.00" d=" M 153.86 24.78 C 157.78 24.77 161.70 24.75 165.62 24.80 C 165.78 37.85 165.63 50.90 165.70 63.94 C 165.60 68.20 165.53 73.06 162.30 76.27 C 157.41 81.54 149.41 81.92 142.78 80.64 C 138.76 80.09 134.77 77.57 133.62 73.51 C 132.63 69.73 132.55 65.77 132.43 61.88 C 136.36 61.88 140.30 61.88 144.23 61.88 C 144.34 65.07 143.88 68.61 145.69 71.43 C 148.09 74.22 153.57 72.86 153.80 68.96 C 153.96 54.24 153.82 39.51 153.86 24.78 Z" />
<path fill="honeydew" opacity="1.00" d=" M 174.29 24.83 C 178.22 24.74 182.15 24.75 186.08 24.83 C 186.13 38.25 186.06 51.67 186.11 65.10 C 186.05 68.54 188.10 72.57 191.92 72.79 C 196.18 73.88 200.17 70.33 200.28 66.11 C 200.41 52.35 200.25 38.59 200.36 24.83 C 204.28 24.74 208.20 24.75 212.12 24.82 C 212.16 37.89 212.13 50.97 212.14 64.04 C 212.10 68.57 210.63 73.23 207.38 76.49 C 202.71 80.70 196.02 81.73 189.96 81.07 C 184.80 80.52 179.31 78.27 176.67 73.54 C 174.53 70.09 174.27 65.91 174.25 61.96 C 174.30 49.58 174.21 37.21 174.29 24.83 Z" />
<path fill="honeydew" opacity="1.00" d=" M 257.17 24.82 C 269.63 24.74 282.09 24.75 294.56 24.81 C 294.62 27.91 294.61 31.01 294.59 34.11 C 290.31 34.11 286.02 34.11 281.74 34.11 C 281.75 49.46 281.73 64.81 281.75 80.15 C 277.80 80.16 273.85 80.16 269.91 80.16 C 269.92 64.81 269.89 49.46 269.92 34.12 C 265.66 34.11 261.41 34.11 257.15 34.11 C 257.13 31.02 257.12 27.92 257.17 24.82 Z" />
<path fill="honeydew" opacity="1.00" d=" M 299.91 24.78 C 303.73 24.77 307.56 24.77 311.39 24.77 C 311.37 43.24 311.38 61.70 311.38 80.16 C 307.56 80.16 303.73 80.16 299.91 80.16 C 299.91 61.70 299.91 43.24 299.91 24.78 Z" />
<path fill="honeydew" opacity="1.00" d=" M 358.85 24.78 C 368.86 24.77 378.86 24.77 388.87 24.78 C 388.84 27.64 388.85 30.50 388.87 33.36 C 382.67 33.36 376.48 33.34 370.28 33.37 C 370.32 37.87 370.32 42.37 370.29 46.87 C 376.00 46.90 381.72 46.88 387.44 46.89 C 387.44 49.75 387.44 52.62 387.46 55.49 C 381.73 55.51 376.01 55.49 370.28 55.50 C 370.33 60.86 370.32 66.21 370.28 71.56 C 376.73 71.58 383.17 71.56 389.62 71.58 C 389.59 74.44 389.59 77.30 389.60 80.16 C 379.35 80.16 369.10 80.16 358.86 80.16 C 358.85 61.70 358.86 43.24 358.85 24.78 Z" />
<path fill="honeydew" opacity="1.00" d=" M 55.10 29.18 C 64.30 27.74 73.98 29.33 82.20 33.73 C 93.63 39.63 102.15 50.86 104.74 63.46 C 107.19 74.47 104.93 86.33 98.92 95.84 C 92.21 106.54 80.65 114.08 68.13 115.80 C 57.15 117.48 45.63 114.66 36.55 108.30 C 28.41 102.34 22.01 93.78 19.49 83.93 C 15.83 71.05 18.74 56.54 26.94 45.97 C 33.73 37.05 44.00 30.85 55.10 29.18 M 52.43 32.64 C 41.48 35.17 31.74 42.47 26.20 52.24 C 19.83 63.29 19.09 77.32 24.33 88.95 C 31.19 105.21 49.52 115.58 67.00 113.06 C 79.18 111.57 90.45 104.23 96.81 93.74 C 101.63 85.76 103.81 76.10 102.41 66.85 C 100.67 53.71 92.04 41.73 80.13 35.92 C 71.65 31.64 61.67 30.39 52.43 32.64 Z" />
<path fill="honeydew" opacity="1.00" d=" M 66.17 48.06 C 67.37 45.17 68.16 42.08 69.88 39.44 C 70.04 41.47 69.97 43.53 69.56 45.54 C 68.79 46.73 67.25 47.19 66.17 48.06 Z" />
<path fill="honeydew" opacity="1.00" d=" M 70.58 49.16 C 72.56 46.82 73.61 43.88 75.47 41.47 C 75.25 46.08 73.93 50.98 70.71 54.41 C 70.97 53.37 71.49 51.28 71.75 50.23 C 71.36 49.88 70.97 49.52 70.58 49.16 Z" />
<path fill="honeydew" opacity="1.00" d=" M 59.09 48.09 C 59.11 46.20 59.46 44.34 60.05 42.55 C 61.56 45.10 61.40 48.23 62.88 50.75 C 63.18 48.04 61.18 44.93 63.36 42.61 C 64.18 45.00 64.67 47.48 64.81 50.01 C 65.19 49.53 65.94 48.57 66.32 48.08 C 66.67 48.62 67.38 49.71 67.73 50.25 C 66.37 50.29 65.01 50.34 63.65 50.38 C 63.95 50.88 64.57 51.89 64.88 52.39 C 64.77 53.93 63.07 52.70 62.30 52.46 C 62.17 53.05 61.89 54.21 61.76 54.79 C 60.50 53.91 59.27 53.01 58.05 52.08 C 59.33 50.79 60.81 49.66 61.77 48.08 C 59.67 49.45 57.22 49.62 54.80 49.56 C 56.09 50.61 57.40 51.65 58.60 52.81 C 56.89 52.72 55.23 52.37 53.60 51.87 C 52.74 52.65 52.35 53.69 52.43 54.97 C 51.44 55.11 50.45 55.31 49.44 55.36 C 47.80 55.43 48.00 53.16 47.61 52.09 C 49.06 52.97 52.48 54.84 51.56 51.67 L 51.47 51.21 C 52.32 50.42 53.19 49.64 54.04 48.84 C 55.68 48.35 57.39 48.21 59.09 48.09 Z" />
<path fill="honeydew" opacity="1.00" d=" M 72.04 54.07 C 74.70 50.93 77.49 47.87 80.24 44.80 C 80.13 50.54 76.21 55.11 71.76 58.17 C 71.96 57.48 72.35 56.12 72.55 55.43 C 72.42 55.09 72.17 54.41 72.04 54.07 M 75.19 52.23 C 75.80 52.92 75.80 52.92 75.19 52.23 Z" />
<path fill="honeydew" opacity="1.00" d=" M 36.30 48.11 C 36.85 47.98 37.40 47.85 37.95 47.72 C 39.01 48.29 40.16 48.61 41.38 48.60 C 41.99 49.62 42.61 50.64 43.24 51.65 C 38.92 54.58 43.59 58.72 45.53 61.51 C 43.46 62.18 42.49 60.73 41.66 59.20 C 40.59 59.41 39.52 59.58 38.44 59.73 C 37.39 60.25 36.25 60.55 35.11 60.80 C 36.57 59.32 38.19 58.02 39.98 56.96 C 39.24 56.06 38.50 55.15 37.80 54.22 C 36.11 54.53 34.45 54.06 32.86 53.51 C 33.89 53.02 34.92 52.56 35.97 52.14 L 36.29 50.44 C 37.00 51.08 38.43 52.35 39.14 52.98 C 39.99 50.45 38.67 48.89 36.30 48.11 Z" />
<path fill="honeydew" opacity="1.00" d=" M 68.07 48.16 C 68.38 48.22 69.01 48.33 69.32 48.39 L 69.00 49.39 L 68.08 49.62 C 68.08 49.25 68.07 48.53 68.07 48.16 Z" />
<path fill="honeydew" opacity="1.00" d=" M 75.88 55.96 C 78.30 54.08 80.49 51.89 83.08 50.23 C 82.43 52.86 81.49 55.58 79.21 57.28 C 80.06 57.82 80.92 58.36 81.78 58.89 C 79.97 61.40 77.85 64.56 74.26 64.02 C 75.33 63.28 75.98 62.14 75.06 61.01 C 76.86 60.33 78.64 59.60 80.40 58.81 C 79.42 58.42 78.44 58.02 77.46 57.62 L 78.11 58.86 C 77.25 59.30 75.52 60.19 74.66 60.63 C 74.61 59.37 74.52 58.11 74.40 56.86 L 77.32 58.26 C 77.18 57.65 74.23 56.78 75.88 55.96 Z" />
<path fill="honeydew" opacity="1.00" d=" M 69.14 49.71 C 71.67 53.19 67.88 56.26 65.88 58.83 C 67.23 58.07 68.42 56.29 70.15 56.74 C 71.46 59.39 67.86 59.90 66.23 60.82 C 66.33 61.01 66.53 61.39 66.63 61.58 C 68.63 60.71 70.61 59.84 72.62 59.01 C 71.51 62.12 68.56 63.10 65.73 63.97 C 67.89 63.92 70.04 63.74 72.19 63.59 C 70.15 65.56 67.49 66.38 64.74 66.70 C 66.05 66.78 67.19 67.23 68.16 68.06 C 67.86 70.23 65.09 68.09 63.77 68.27 C 65.18 69.35 66.64 70.36 67.98 71.53 C 65.63 72.07 63.67 70.65 61.55 70.01 C 62.65 71.63 65.70 72.46 64.46 74.97 C 63.01 74.05 61.75 72.89 60.54 71.69 C 60.56 73.01 60.30 74.27 59.76 75.47 C 59.38 73.23 58.63 71.12 57.35 69.24 C 56.85 69.33 55.87 69.52 55.38 69.61 C 55.41 70.18 55.49 71.31 55.52 71.88 C 54.69 72.10 53.01 72.53 52.18 72.74 C 54.60 74.13 58.46 73.15 58.66 76.96 C 59.85 76.71 61.14 75.68 62.34 76.47 C 64.56 77.94 67.71 77.14 69.37 79.55 C 68.53 79.49 66.85 79.38 66.01 79.32 C 66.34 79.54 66.99 79.97 67.32 80.18 C 68.44 83.51 69.95 86.70 70.81 90.13 C 71.38 90.21 72.52 90.38 73.09 90.46 C 74.68 92.44 77.49 92.83 78.85 95.01 C 78.53 95.46 77.89 96.34 77.57 96.78 C 77.65 97.47 77.77 98.15 77.90 98.83 C 76.80 100.30 75.93 101.90 74.92 103.43 C 74.85 102.77 74.71 101.45 74.65 100.79 C 74.59 105.08 69.36 106.61 66.02 105.09 C 66.17 105.95 66.48 107.67 66.64 108.53 C 65.83 107.12 65.57 105.50 65.33 103.92 C 66.47 103.18 67.69 102.58 68.99 102.13 C 67.11 102.36 64.94 102.29 64.39 104.66 C 63.86 103.51 63.38 102.34 62.96 101.16 C 61.97 101.78 60.89 102.26 59.82 102.71 C 60.57 101.62 61.48 100.64 62.78 100.20 L 61.96 98.82 C 64.51 99.14 66.93 100.04 69.40 100.74 C 69.91 98.33 70.01 95.78 71.31 93.62 C 67.40 92.76 63.56 91.15 60.90 88.04 C 61.06 86.17 61.32 84.32 61.69 82.48 C 61.12 82.54 59.98 82.66 59.41 82.72 C 59.54 83.61 59.79 85.40 59.91 86.29 C 57.66 86.95 55.41 85.82 53.22 85.37 C 54.88 86.96 56.51 88.59 58.02 90.34 C 57.01 92.51 53.94 92.80 51.91 93.68 C 49.19 93.66 46.61 94.99 43.88 94.46 C 42.18 94.09 40.73 95.01 39.30 95.75 C 39.55 94.97 39.81 94.18 40.06 93.40 L 41.60 93.98 L 41.74 91.35 C 41.16 91.19 40.00 90.85 39.42 90.68 C 38.76 91.04 37.44 91.76 36.78 92.12 C 37.51 89.96 39.96 89.55 41.11 87.74 C 42.02 87.49 42.93 87.25 43.84 87.01 C 44.11 87.53 44.65 88.56 44.92 89.08 C 47.18 88.71 49.43 88.31 51.68 87.92 C 48.53 85.55 46.38 81.91 47.18 77.85 C 50.96 80.27 57.49 77.64 59.23 82.68 C 59.60 82.01 59.97 81.34 60.32 80.66 C 57.73 77.96 54.43 75.97 52.25 72.88 C 50.44 73.77 48.51 74.32 46.52 74.58 C 47.48 73.02 48.25 71.38 46.52 69.99 C 48.35 69.09 50.26 68.37 52.12 67.56 C 52.35 66.95 52.81 65.73 53.04 65.12 C 55.86 64.15 58.20 67.54 60.97 66.71 C 64.82 64.55 63.01 59.22 60.98 56.41 C 62.61 59.71 62.04 63.06 61.06 66.47 C 58.02 66.08 55.41 63.92 52.24 64.43 C 51.33 65.74 50.46 67.08 49.58 68.41 C 46.38 65.29 49.39 61.36 51.88 59.00 C 53.62 58.22 55.33 57.36 57.10 56.65 C 56.29 56.27 54.66 55.50 53.85 55.12 C 55.36 55.26 56.86 55.51 58.36 55.76 C 57.14 50.06 62.14 57.19 64.19 55.21 C 66.00 53.52 67.51 51.56 69.14 49.71 Z" />
<path fill="honeydew" opacity="1.00" d=" M 83.00 72.09 C 84.09 66.17 88.41 61.73 90.99 56.47 C 90.90 58.23 91.54 60.19 90.72 61.84 C 89.22 63.98 87.05 65.59 85.75 67.89 C 87.73 65.98 89.56 63.90 91.78 62.25 C 92.29 67.73 85.59 68.12 84.53 72.75 C 87.45 71.06 90.87 73.87 89.04 76.87 C 87.86 76.43 86.69 75.98 85.52 75.52 C 82.95 77.26 84.30 79.80 85.53 81.97 C 84.81 83.06 84.14 84.17 83.51 85.31 C 83.04 85.38 82.11 85.53 81.64 85.60 C 79.23 85.38 77.34 87.52 74.93 87.32 C 71.67 87.35 69.99 84.13 68.28 81.89 C 68.81 81.43 69.33 80.98 69.85 80.52 C 71.89 84.74 78.11 85.92 81.21 82.27 C 83.62 78.30 81.54 73.52 79.12 70.09 C 80.53 70.52 81.83 71.18 83.00 72.09 Z" />
<path fill="honeydew" opacity="1.00" d=" M 73.60 58.33 C 73.99 58.81 73.99 58.81 73.60 58.33 Z" />
<path fill="honeydew" opacity="1.00" d=" M 46.47 58.77 C 46.96 59.66 47.37 60.57 47.82 61.48 C 47.19 63.17 47.05 64.96 47.01 66.75 C 45.48 66.64 43.94 66.53 42.40 66.42 C 42.82 65.91 43.66 64.87 44.08 64.35 C 43.72 63.83 43.00 62.79 42.64 62.26 C 45.49 63.28 45.90 60.85 46.47 58.77 Z" />
<path fill="honeydew" opacity="1.00" d=" M 73.35 60.37 L 73.98 60.33 C 73.84 60.50 73.55 60.84 73.40 61.01 L 73.35 60.37 Z" />
<path fill="honeydew" opacity="1.00" d=" M 72.31 62.30 C 75.41 60.87 72.25 65.77 72.31 62.30 Z" />
<path fill="honeydew" opacity="1.00" d=" M 70.60 65.02 C 73.55 63.49 76.69 65.22 79.71 65.42 C 77.07 67.37 73.00 69.15 70.08 67.93 C 70.32 65.69 73.24 67.01 74.64 66.36 C 73.63 66.02 71.61 65.35 70.60 65.02 Z" />
<path fill="honeydew" opacity="1.00" d=" M 35.89 64.92 C 37.55 65.05 39.11 65.64 40.62 66.32 C 40.68 67.05 40.81 68.49 40.87 69.21 C 42.74 69.49 44.63 69.41 46.50 69.46 C 46.18 70.19 45.53 71.66 45.21 72.40 C 44.62 72.34 43.45 72.23 42.86 72.17 C 43.29 73.04 43.73 73.90 44.17 74.76 C 44.17 75.61 44.18 76.45 44.18 77.30 C 43.49 77.44 42.80 77.59 42.10 77.73 C 42.56 77.05 43.48 75.69 43.93 75.00 C 43.35 75.24 42.18 75.73 41.60 75.97 C 41.57 75.40 41.52 74.25 41.49 73.68 L 40.52 73.22 C 38.20 74.53 35.91 75.90 33.44 76.90 C 34.00 76.31 35.14 75.13 35.70 74.53 C 35.62 74.21 35.45 73.56 35.37 73.23 C 36.63 72.83 37.88 72.42 39.14 72.00 C 37.67 70.48 35.94 70.46 34.14 71.37 C 34.37 70.93 34.82 70.06 35.04 69.63 L 33.31 69.42 L 32.46 68.14 L 36.13 68.56 L 35.71 67.63 C 36.65 67.47 38.51 67.15 39.44 66.99 C 38.24 66.33 37.05 65.64 35.89 64.92 Z" />
<path fill="honeydew" opacity="1.00" d=" M 68.33 69.98 C 71.45 69.18 74.80 67.93 77.92 69.40 C 75.01 71.08 71.37 71.80 68.13 71.27 L 68.33 69.98 Z" />
<path fill="honeydew" opacity="1.00" d=" M 66.20 72.89 C 69.05 72.11 72.41 71.57 74.82 73.78 C 71.93 74.74 68.74 74.77 66.20 72.89 Z" />
<path fill="honeydew" opacity="1.00" d=" M 65.57 72.80 C 66.81 74.11 68.10 75.38 69.31 76.72 C 67.25 76.63 65.23 76.18 63.30 75.45 C 63.91 75.27 65.13 74.92 65.74 74.74 L 65.57 72.80 Z" />
<path fill="honeydew" opacity="1.00" d=" M 41.37 86.18 C 42.06 86.84 42.06 86.84 41.37 86.18 Z" />
<path fill="honeydew" opacity="1.00" d=" M 213.06 95.16 C 216.85 91.83 222.10 90.85 226.99 90.79 C 231.60 90.80 236.70 91.50 240.05 95.00 C 243.32 98.30 243.64 103.23 243.62 107.61 C 239.84 107.66 236.06 107.60 232.28 107.68 C 232.20 104.25 231.54 99.05 227.05 99.09 C 221.90 98.32 218.89 105.04 222.06 108.77 C 226.66 114.22 234.28 115.64 239.29 120.65 C 245.77 126.42 245.88 137.70 239.91 143.84 C 233.19 148.95 223.56 149.03 215.82 146.41 C 209.36 143.98 207.99 136.35 208.12 130.26 C 212.01 130.08 215.90 130.20 219.79 130.12 C 220.23 133.01 219.80 136.60 222.34 138.63 C 225.43 140.69 230.86 140.10 231.97 136.06 C 234.06 131.37 229.51 127.49 225.88 125.39 C 219.84 121.66 212.36 118.46 209.81 111.24 C 208.45 105.83 208.94 99.31 213.06 95.16 Z" />
<path fill="honeydew" opacity="1.00" d=" M 140.34 91.90 C 144.27 91.87 148.21 91.88 152.14 91.88 C 152.15 110.21 152.14 128.54 152.15 146.87 C 148.20 146.88 144.26 146.89 140.31 146.86 C 140.36 128.54 140.31 110.22 140.34 91.90 Z" />
<path fill="honeydew" opacity="1.00" d=" M 160.33 91.90 C 165.59 91.86 170.84 91.88 176.10 91.89 C 181.00 104.65 186.04 117.36 190.74 130.19 C 191.52 117.44 190.88 104.65 191.11 91.88 C 194.65 91.88 198.19 91.88 201.74 91.89 C 201.77 110.21 201.72 128.54 201.77 146.87 C 196.64 146.87 191.51 146.93 186.39 146.82 C 181.36 133.66 176.70 120.35 171.45 107.29 C 171.31 120.48 171.44 133.68 171.40 146.88 C 167.70 146.88 164.01 146.88 160.31 146.87 C 160.35 128.55 160.32 110.22 160.33 91.90 Z" />
<path fill="honeydew" opacity="1.00" d=" M 248.21 91.88 C 260.58 91.94 272.95 91.77 285.32 91.97 C 285.31 94.92 285.31 97.87 285.33 100.81 C 281.04 100.84 276.74 100.81 272.45 100.84 C 272.47 116.19 272.46 131.54 272.46 146.88 C 268.66 146.87 264.86 146.88 261.07 146.87 C 261.00 131.53 261.30 116.19 260.91 100.86 C 256.67 100.80 252.42 100.84 248.18 100.82 C 248.19 97.84 248.19 94.86 248.21 91.88 Z" />
<path fill="honeydew" opacity="1.00" d=" M 290.68 91.88 C 294.60 91.88 298.52 91.88 302.45 91.88 C 302.46 110.22 302.45 128.55 302.45 146.88 C 298.52 146.87 294.60 146.88 290.67 146.88 C 290.68 128.55 290.67 110.21 290.68 91.88 Z" />
<path fill="honeydew" opacity="1.00" d=" M 307.80 100.82 C 307.83 97.87 307.68 94.91 307.89 91.96 C 320.22 91.77 332.56 91.94 344.89 91.88 C 344.91 94.86 344.91 97.84 344.92 100.82 C 340.67 100.84 336.43 100.80 332.18 100.87 C 332.07 116.20 332.16 131.53 332.14 146.87 C 328.31 146.88 324.49 146.88 320.67 146.88 C 320.68 131.53 320.66 116.18 320.69 100.84 C 316.39 100.82 312.09 100.83 307.80 100.82 Z" />
<path fill="honeydew" opacity="1.00" d=" M 350.31 91.89 C 354.12 91.88 357.92 91.88 361.73 91.89 C 361.74 104.60 361.73 117.31 361.72 130.02 C 361.80 132.70 362.11 135.69 364.06 137.72 C 366.85 140.83 372.46 140.28 374.76 136.85 C 376.10 134.86 376.31 132.35 376.38 130.01 C 376.38 117.31 376.37 104.60 376.38 91.90 C 380.18 91.87 383.98 91.88 387.78 91.89 C 387.81 104.93 387.76 117.98 387.81 131.03 C 387.97 135.69 386.36 140.64 382.65 143.66 C 377.03 148.59 368.75 148.62 361.82 147.12 C 355.33 145.69 350.46 139.69 350.32 133.06 C 350.29 119.34 350.31 105.62 350.31 91.89 Z" />
<path fill="honeydew" opacity="1.00" d=" M 392.78 100.82 C 392.79 97.84 392.79 94.86 392.79 91.88 C 405.30 91.94 417.81 91.75 430.31 91.98 C 430.30 94.93 430.30 97.87 430.32 100.81 C 426.03 100.84 421.74 100.83 417.46 100.82 C 417.43 116.18 417.45 131.53 417.45 146.88 C 413.52 146.88 409.59 146.88 405.67 146.88 C 405.67 131.53 405.66 116.18 405.67 100.84 C 401.37 100.82 397.08 100.84 392.78 100.82 Z" />
<path fill="honeydew" opacity="1.00" d=" M 435.67 91.88 C 445.76 91.88 455.85 91.88 465.95 91.88 C 466.09 94.64 466.09 97.39 466.08 100.15 C 459.86 100.16 453.65 100.16 447.45 100.15 C 447.44 104.80 447.43 109.46 447.46 114.11 C 453.17 114.11 458.88 114.11 464.59 114.11 C 464.59 116.83 464.58 119.55 464.61 122.28 C 458.88 122.29 453.15 122.27 447.42 122.29 C 447.45 127.76 447.45 133.22 447.42 138.69 C 453.74 138.71 460.06 138.69 466.38 138.70 C 466.36 141.43 466.37 144.15 466.37 146.88 C 456.13 146.87 445.89 146.88 435.66 146.88 C 435.67 128.55 435.65 110.21 435.67 91.88 Z" />
<path fill="honeydew" opacity="1.00" d=" M 61.52 105.73 C 61.22 104.11 61.86 103.48 63.42 103.84 C 63.77 105.45 63.13 106.08 61.52 105.73 Z" />
<path fill="honeydew" opacity="1.00" d=" M 159.62 168.84 C 160.44 164.54 162.41 159.50 167.11 158.32 C 168.77 157.46 171.84 158.87 170.44 160.95 C 169.91 163.46 167.13 159.90 165.71 159.80 C 164.31 162.64 163.77 165.77 163.33 168.88 C 164.44 169.00 166.65 169.24 167.75 169.37 C 166.39 170.51 164.59 170.62 162.94 171.00 C 161.99 177.33 161.34 183.85 158.71 189.76 C 157.57 192.29 155.22 194.93 152.22 194.74 C 150.64 193.93 151.94 192.48 152.27 191.32 C 153.31 191.70 154.34 192.08 155.38 192.47 C 158.32 185.69 157.93 178.06 159.36 170.90 C 158.56 170.87 156.96 170.80 156.15 170.77 C 156.41 170.40 156.93 169.67 157.19 169.30 C 157.80 169.19 159.01 168.96 159.62 168.84 Z" />
<path fill="honeydew" opacity="1.00" d=" M 240.36 167.45 C 240.71 167.67 241.42 168.11 241.77 168.33 C 246.29 168.07 250.94 168.93 255.35 167.68 C 255.56 169.63 255.74 171.59 255.77 173.56 C 254.78 172.41 254.16 170.95 253.06 169.92 C 252.20 169.87 250.48 169.78 249.62 169.73 C 249.69 174.15 249.41 178.59 249.75 183.01 C 250.64 184.04 251.95 184.59 253.03 185.40 C 249.68 185.54 246.30 185.61 242.96 185.27 C 243.92 184.25 246.20 183.91 246.02 182.12 C 246.21 177.98 246.04 173.85 246.08 169.71 C 242.99 168.96 241.41 171.35 239.93 173.57 C 240.09 171.53 240.28 169.49 240.36 167.45 Z" />
<path fill="honeydew" opacity="1.00" d=" M 144.50 168.64 C 146.94 167.66 150.04 168.57 151.09 171.12 C 152.76 176.55 149.90 183.13 144.62 185.40 C 142.21 186.51 138.83 185.89 137.74 183.22 C 135.62 177.65 138.75 170.54 144.50 168.64 M 144.35 170.27 C 141.63 172.22 141.09 175.89 141.05 179.00 C 141.15 180.56 140.78 182.65 142.27 183.68 C 143.54 184.90 144.99 183.85 145.69 182.62 C 147.25 180.00 147.73 176.88 147.85 173.88 C 147.87 171.96 146.73 169.26 144.35 170.27 Z" />
<path fill="honeydew" opacity="1.00" d=" M 178.37 168.40 C 182.77 168.71 187.61 167.31 191.72 169.27 C 194.67 171.18 192.88 175.50 189.73 175.91 C 191.26 176.66 193.40 177.12 193.85 179.05 C 194.91 181.57 192.97 184.44 190.41 185.01 C 186.53 185.95 182.49 185.34 178.54 185.47 C 179.44 184.32 181.33 183.70 181.25 182.00 C 181.55 178.10 181.54 174.15 181.03 170.26 C 180.12 169.67 179.23 169.05 178.37 168.40 M 184.93 169.62 C 184.92 171.56 184.91 173.49 184.91 175.43 C 185.72 175.43 187.33 175.44 188.14 175.44 C 188.90 174.09 189.78 172.62 189.09 171.04 C 188.05 169.81 186.36 169.90 184.93 169.62 M 184.88 176.75 C 184.89 179.14 184.99 181.52 185.25 183.90 C 187.36 184.27 190.22 183.76 190.05 181.02 C 190.70 177.90 187.30 176.79 184.88 176.75 Z" />
<path fill="honeydew" opacity="1.00" d=" M 200.93 168.33 C 204.66 168.41 208.40 168.12 212.13 168.45 C 214.41 168.59 216.03 170.79 216.16 172.95 C 215.87 175.05 214.17 176.33 212.67 177.61 C 214.35 180.66 216.54 183.33 219.04 185.74 C 217.33 185.76 215.55 185.77 213.93 185.16 C 211.58 183.60 210.55 180.85 209.28 178.45 C 208.74 178.41 207.64 178.33 207.09 178.29 C 207.12 179.88 207.09 181.48 207.29 183.07 C 208.16 183.93 209.20 184.62 210.15 185.41 C 207.15 185.52 204.16 185.47 201.17 185.56 C 201.13 185.30 201.06 184.80 201.03 184.55 C 201.65 184.36 202.91 183.98 203.53 183.79 C 203.48 179.32 203.68 174.85 203.46 170.39 C 202.64 169.65 201.78 169.00 200.93 168.33 M 207.19 169.72 C 207.12 172.19 207.12 174.67 207.21 177.15 C 208.81 176.69 211.26 176.96 211.79 174.91 C 212.60 173.44 211.79 171.85 211.45 170.39 C 210.03 170.11 208.62 169.86 207.19 169.72 Z" />
<path fill="honeydew" opacity="1.00" d=" M 223.86 168.82 C 227.07 167.94 230.45 168.41 233.73 168.39 C 232.86 169.04 231.98 169.66 231.09 170.27 C 231.08 174.67 231.11 179.07 231.07 183.46 C 231.96 184.06 232.89 184.65 233.74 185.32 C 230.45 185.58 227.10 185.71 223.84 185.13 C 224.65 184.73 226.26 183.93 227.07 183.53 C 227.20 179.06 227.14 174.58 227.12 170.10 C 226.31 169.78 224.68 169.14 223.86 168.82 Z" />
<path fill="honeydew" opacity="1.00" d=" M 261.91 168.43 C 265.25 168.28 268.60 168.29 271.95 168.39 C 270.94 169.06 269.90 169.71 268.87 170.34 C 268.85 174.78 268.84 179.22 268.88 183.66 C 269.67 184.01 271.26 184.71 272.05 185.06 C 268.69 185.74 265.15 185.73 261.78 185.06 C 262.56 184.73 264.11 184.05 264.89 183.72 C 264.94 179.24 264.89 174.77 264.92 170.29 C 263.90 169.68 262.89 169.08 261.91 168.43 Z" />
<path fill="honeydew" opacity="1.00" d=" M 281.87 168.59 C 284.12 167.29 286.76 168.16 289.16 168.47 C 289.32 170.17 289.50 171.87 289.58 173.58 C 287.78 171.60 286.31 167.88 283.00 169.82 C 280.73 173.14 285.12 174.71 287.46 175.75 C 290.86 177.16 291.45 182.28 288.60 184.51 C 285.93 186.42 282.07 186.42 279.36 184.62 C 278.48 182.91 278.63 180.91 278.60 179.05 C 279.67 180.44 280.48 182.00 281.58 183.36 C 283.00 185.13 287.10 184.91 286.82 182.05 C 287.19 178.96 283.55 178.52 281.61 177.23 C 278.01 175.80 278.38 169.93 281.87 168.59 Z" />
<path fill="honeydew" opacity="1.00" d=" M 296.62 168.33 C 299.79 168.31 302.97 168.34 306.15 168.32 C 303.19 169.63 303.25 172.66 303.49 175.47 C 305.91 175.49 308.33 175.49 310.75 175.47 C 310.60 173.81 310.95 172.03 310.36 170.46 C 309.52 169.68 308.60 169.03 307.72 168.31 C 310.89 168.33 314.05 168.33 317.22 168.32 C 316.27 169.20 314.90 169.75 314.32 170.95 C 314.19 174.96 314.17 178.99 314.34 183.00 C 315.27 183.84 316.25 184.64 317.26 185.41 C 314.05 185.53 310.84 185.53 307.64 185.41 C 308.65 184.63 309.63 183.82 310.58 182.97 C 310.75 181.08 310.69 179.18 310.72 177.29 C 308.31 177.27 305.91 177.27 303.52 177.28 C 303.67 180.33 302.38 184.30 306.39 185.37 C 303.10 185.54 299.80 185.55 296.52 185.39 C 297.26 184.85 298.75 183.79 299.49 183.26 C 299.68 179.01 299.74 174.72 299.46 170.47 C 298.54 169.71 297.55 169.05 296.62 168.33 Z" />
<path fill="honeydew" opacity="1.00" d=" M 334.83 169.78 C 338.07 167.16 342.46 167.84 346.26 168.43 C 346.43 170.28 346.65 172.12 346.79 173.97 C 345.70 172.73 344.86 171.30 343.78 170.08 C 342.36 169.08 340.50 169.58 338.90 169.33 C 333.79 172.59 334.05 182.25 340.01 184.34 C 343.64 185.43 345.14 181.54 347.23 179.48 C 346.92 181.34 346.66 183.24 346.00 185.01 C 341.75 186.59 336.11 186.42 333.02 182.68 C 330.03 178.87 330.73 172.56 334.83 169.78 Z" />
<path fill="honeydew" opacity="1.00" d=" M 360.03 168.12 C 365.54 166.42 371.84 171.14 371.12 177.01 C 371.57 183.56 363.80 188.15 358.15 185.00 C 351.05 181.73 352.51 169.87 360.03 168.12 M 359.48 170.45 C 357.56 172.84 357.57 176.12 357.90 179.02 C 358.42 181.22 359.40 184.09 362.02 184.36 C 364.18 184.85 366.09 182.93 366.53 180.95 C 367.62 177.16 367.00 172.46 363.95 169.73 C 362.49 169.22 360.51 169.06 359.48 170.45 Z" />
<path fill="honeydew" opacity="1.00" d=" M 377.74 168.30 C 380.92 168.34 384.10 168.31 387.28 168.36 C 386.31 169.06 385.31 169.71 384.38 170.45 C 384.08 174.30 384.25 178.19 384.27 182.05 C 383.95 184.64 387.43 184.07 389.04 183.89 C 390.35 182.74 391.08 181.09 392.16 179.73 C 392.06 181.66 391.74 183.57 391.41 185.47 C 386.66 185.42 381.88 185.75 377.16 185.23 C 378.17 184.67 379.18 184.08 380.18 183.48 C 381.01 179.67 380.73 175.69 380.50 171.82 C 380.59 170.06 378.78 169.38 377.74 168.30 Z" />
<path fill="honeydew" opacity="1.00" d=" M 395.97 168.86 C 399.21 167.96 402.72 168.14 406.00 168.76 C 405.30 169.08 403.91 169.73 403.21 170.05 C 403.38 173.85 402.65 177.79 403.65 181.49 C 404.27 184.74 409.15 184.95 410.48 182.16 C 411.94 179.01 411.26 175.42 411.34 172.07 C 411.57 170.02 409.20 169.47 407.96 168.38 C 410.69 168.31 413.44 168.31 416.18 168.35 C 415.03 169.42 412.80 169.99 413.18 171.97 C 413.11 175.14 413.41 178.37 412.57 181.47 C 411.14 187.17 401.30 187.69 399.65 181.93 C 398.79 178.03 399.48 174.00 399.16 170.04 C 398.36 169.75 396.77 169.16 395.97 168.86 Z" />
<path fill="honeydew" opacity="1.00" d=" M 420.94 168.90 C 423.14 168.03 425.54 168.36 427.86 168.36 C 429.54 172.03 431.01 175.80 432.82 179.42 C 434.39 175.74 435.92 172.04 437.46 168.34 C 439.74 168.34 442.03 168.31 444.32 168.31 C 443.33 169.12 442.28 169.87 441.35 170.74 C 441.28 175.07 441.92 179.37 441.77 183.70 C 442.57 184.05 444.18 184.74 444.99 185.08 C 441.70 185.81 438.29 185.51 434.97 185.29 C 436.01 184.64 437.05 184.03 438.13 183.44 C 438.34 179.51 438.03 175.59 437.64 171.69 C 435.61 176.36 433.98 181.22 431.54 185.70 C 429.36 181.55 428.15 176.98 425.86 172.89 C 425.64 176.30 425.57 179.73 425.71 183.15 C 426.62 183.95 427.64 184.64 428.57 185.44 C 426.02 185.53 423.47 185.50 420.93 185.45 C 421.79 184.63 422.72 183.89 423.52 182.99 C 424.15 178.66 424.22 174.27 424.25 169.90 C 423.42 169.65 421.77 169.15 420.94 168.90 Z" />
<path fill="honeydew" opacity="1.00" d=" M 450.60 168.31 C 455.10 168.91 460.35 166.97 464.35 169.66 C 466.74 171.86 464.62 174.88 462.32 176.06 C 463.70 176.81 465.56 177.32 466.01 179.05 C 467.24 181.41 465.31 184.31 462.90 184.86 C 458.90 186.08 454.65 185.29 450.55 185.43 C 451.26 184.83 452.66 183.63 453.36 183.04 C 453.65 178.95 453.62 174.80 453.39 170.71 C 452.50 169.85 451.52 169.11 450.60 168.31 M 457.14 169.64 C 457.11 171.63 457.10 173.62 457.14 175.62 C 458.80 175.58 461.80 175.40 461.40 172.94 C 462.07 170.31 459.13 169.56 457.14 169.64 M 457.16 176.72 C 457.17 178.99 456.89 181.30 457.38 183.54 C 459.32 184.85 462.44 183.51 462.16 180.98 C 462.84 177.93 459.49 176.88 457.16 176.72 Z" />
<path fill="honeydew" opacity="1.00" d=" M 472.59 168.40 C 475.93 168.28 479.27 168.28 482.62 168.42 C 481.63 169.07 480.62 169.69 479.60 170.27 C 479.67 174.72 479.37 179.19 479.73 183.63 C 480.44 184.00 481.85 184.75 482.56 185.12 C 479.26 185.71 475.82 185.72 472.53 185.08 C 473.31 184.73 474.88 184.02 475.66 183.67 C 475.66 179.19 475.65 174.72 475.67 170.25 C 474.63 169.64 473.60 169.05 472.59 168.40 Z" />
<path fill="honeydew" opacity="1.00" d=" M 496.34 168.15 C 496.66 168.11 497.29 168.04 497.61 168.01 C 499.62 172.58 501.14 177.35 503.04 181.97 C 503.62 183.55 505.28 184.29 506.42 185.43 C 503.39 185.51 500.35 185.58 497.33 185.38 C 498.08 184.68 498.88 184.05 499.68 183.41 C 499.36 182.60 498.71 180.97 498.39 180.16 C 496.74 180.16 495.09 180.16 493.46 180.16 C 493.19 180.96 492.65 182.57 492.39 183.37 C 493.16 184.05 493.97 184.73 494.74 185.43 C 492.24 185.52 489.72 185.56 487.23 185.29 C 488.32 184.34 489.92 183.84 490.56 182.45 C 492.75 177.79 494.24 172.84 496.34 168.15 M 493.88 178.32 C 495.18 178.33 496.49 178.33 497.81 178.33 C 497.19 176.59 496.56 174.85 495.93 173.12 C 495.22 174.84 494.56 176.59 493.88 178.32 Z" />
</g>
</svg>
