<?xml version="1.0" encoding="UTF-8" ?>
<!DOCTYPE svg PUBLIC "-//W3C//DTD SVG 1.1//EN" "http://www.w3.org/Graphics/SVG/1.1/DTD/svg11.dtd">
<svg width="1200pt" height="429pt" viewBox="0 0 1200 429" version="1.1" xmlns="http://www.w3.org/2000/svg">
<g id="#ee3224ff">
<path fill="honeydew" opacity="1.00" d=" M 5.05 5.01 C 14.36 4.59 23.68 4.96 33.00 4.84 C 39.24 5.00 45.51 4.42 51.72 5.18 C 62.94 47.11 73.97 89.11 84.97 131.10 C 85.08 132.01 85.56 132.58 86.43 132.80 C 96.70 91.90 107.97 51.25 118.46 10.41 C 118.89 8.59 119.49 6.82 120.15 5.07 C 135.66 4.63 151.22 4.79 166.75 4.99 C 162.43 19.66 157.33 34.09 152.75 48.67 C 139.24 90.51 125.63 132.32 112.15 174.17 C 111.73 175.33 111.19 176.44 110.66 177.56 C 93.59 177.59 76.50 177.68 59.44 177.51 C 59.04 176.57 58.67 175.62 58.31 174.67 C 43.47 127.56 28.62 80.44 13.73 33.34 C 10.96 23.86 7.45 14.60 5.05 5.01 Z" />
<path fill="honeydew" opacity="1.00" d=" M 165.38 62.34 C 175.60 53.12 189.68 49.85 203.04 48.79 C 217.65 48.22 232.78 48.08 246.66 53.34 C 254.37 56.11 261.50 61.18 265.65 68.37 C 269.66 75.17 270.96 83.19 270.97 90.99 C 271.00 108.99 270.98 126.99 270.97 144.99 C 270.80 156.03 271.12 167.37 275.72 177.62 C 261.93 177.52 248.13 177.72 234.35 177.52 C 233.10 173.83 232.66 169.94 231.96 166.13 C 228.32 168.77 225.07 171.97 221.03 174.04 C 209.19 180.42 195.30 182.11 182.05 180.65 C 172.39 179.32 162.58 175.48 156.11 167.91 C 150.13 161.13 147.61 151.89 147.78 142.98 C 147.79 134.87 149.80 126.40 155.12 120.09 C 160.31 113.74 167.94 110.01 175.63 107.63 C 190.05 103.23 205.24 102.65 219.98 99.88 C 223.85 99.16 228.20 98.00 230.36 94.38 C 232.52 90.21 232.39 84.51 228.96 81.03 C 225.34 77.20 219.94 75.77 214.86 75.20 C 208.19 74.58 200.58 75.62 195.89 80.90 C 193.26 83.42 192.49 87.10 191.21 90.37 C 186.51 91.14 181.74 90.57 177.00 90.69 C 169.03 90.63 161.05 90.83 153.08 90.68 C 152.87 80.09 157.41 69.37 165.38 62.34 M 215.27 123.41 C 208.16 125.08 200.46 125.96 194.38 130.34 C 186.88 135.43 187.00 148.51 194.97 153.08 C 201.18 156.68 208.86 156.23 215.61 154.61 C 221.62 153.11 226.57 148.44 228.59 142.61 C 231.17 135.14 231.67 127.08 231.16 119.25 C 225.98 121.05 220.71 122.60 215.27 123.41 Z" />
<path fill="honeydew" opacity="1.00" d=" M 334.39 60.37 C 344.36 51.76 357.85 47.59 370.95 48.60 C 382.20 48.95 394.00 52.69 401.51 61.47 C 409.40 70.64 411.54 83.22 411.69 94.96 C 411.63 122.50 411.82 150.05 411.61 177.58 C 398.12 177.61 384.63 177.61 371.15 177.59 C 370.73 176.11 370.52 174.58 370.55 173.04 C 370.69 151.01 370.55 128.98 370.64 106.95 C 370.53 100.48 370.04 93.40 365.90 88.10 C 361.33 82.75 353.67 81.73 347.06 82.42 C 339.84 83.01 333.43 88.05 330.65 94.66 C 326.77 102.89 327.81 112.19 327.70 121.00 C 327.62 139.86 327.84 158.73 327.61 177.59 C 314.12 177.60 300.63 177.61 287.15 177.59 C 286.81 176.43 286.62 175.25 286.58 174.06 C 286.64 134.70 286.61 95.35 286.60 56.00 C 286.65 54.70 286.73 53.40 286.84 52.11 C 300.09 52.01 313.38 51.72 326.61 52.26 C 326.79 57.63 326.25 63.01 326.79 68.37 C 329.49 65.86 331.66 62.84 334.39 60.37 Z" />
<path fill="honeydew" opacity="1.00" d=" M 450.82 58.86 C 466.37 48.61 486.06 46.64 504.07 49.90 C 518.23 52.53 532.00 59.61 540.62 71.41 C 546.25 79.06 549.73 88.37 550.17 97.88 C 542.45 98.16 534.72 97.86 527.00 97.96 C 521.52 97.84 516.02 98.34 510.58 97.68 C 509.67 94.36 509.31 90.72 507.01 87.99 C 497.92 75.69 476.19 77.73 468.90 90.95 C 463.95 99.73 463.48 110.16 463.78 120.00 C 464.32 128.15 466.51 136.69 472.08 142.92 C 481.18 153.06 499.99 151.98 507.40 140.37 C 509.81 136.86 510.50 132.58 511.71 128.59 C 514.11 128.15 516.56 128.12 519.00 128.18 C 529.65 128.38 540.30 128.08 550.95 128.27 C 551.68 133.82 549.31 139.38 547.57 144.59 C 541.12 162.06 525.00 174.79 507.10 178.98 C 489.26 183.19 469.57 181.58 453.46 172.46 C 441.05 165.47 431.25 154.00 426.53 140.54 C 421.52 126.54 421.53 111.04 424.85 96.65 C 428.64 81.52 437.50 67.32 450.82 58.86 Z" />
<path fill="honeydew" opacity="1.00" d=" M 612.38 49.59 C 626.29 47.41 641.00 48.24 653.98 54.03 C 668.25 60.03 679.91 71.71 686.16 85.84 C 694.76 105.21 694.35 128.57 684.46 147.40 C 678.70 158.47 669.47 167.69 658.39 173.45 C 645.04 180.63 629.30 182.47 614.42 180.34 C 598.40 177.95 583.22 169.54 573.39 156.58 C 553.88 131.21 555.42 91.82 577.37 68.40 C 586.56 58.49 599.16 52.07 612.38 49.59 M 619.42 80.66 C 613.57 82.26 608.70 86.60 605.96 91.96 C 600.95 101.52 600.32 112.71 601.56 123.26 C 602.65 131.31 605.42 139.80 611.97 145.07 C 617.71 149.81 625.83 150.83 632.86 148.82 C 638.94 147.01 643.82 142.27 646.56 136.64 C 651.10 127.41 651.72 116.79 650.52 106.73 C 649.38 98.65 646.62 90.18 640.16 84.78 C 634.54 79.92 626.45 78.88 619.42 80.66 Z" />
<path fill="honeydew" opacity="1.00" d=" M 980.87 68.90 C 993.75 55.46 1012.46 48.14 1031.00 48.50 C 1046.58 48.27 1062.63 53.14 1074.34 63.68 C 1091.24 78.75 1097.47 102.75 1095.94 124.71 C 1065.29 125.00 1034.62 124.42 1003.98 124.99 C 1004.24 134.65 1008.40 145.04 1017.26 149.83 C 1027.04 155.04 1040.00 154.65 1048.99 147.93 C 1052.03 145.84 1053.62 142.39 1056.09 139.74 C 1068.53 139.50 1081.01 139.44 1093.46 139.78 C 1091.18 152.60 1082.34 163.59 1071.57 170.54 C 1055.96 180.40 1036.65 182.64 1018.62 180.30 C 1003.61 178.31 988.85 171.78 978.67 160.35 C 967.37 147.85 962.53 130.62 962.80 114.02 C 962.66 97.39 969.26 80.81 980.87 68.90 M 1014.06 82.08 C 1008.38 87.02 1005.00 94.29 1004.09 101.69 C 1021.03 101.81 1037.98 101.82 1054.92 101.69 C 1054.63 92.20 1049.27 82.70 1040.61 78.48 C 1032.06 74.41 1021.23 75.91 1014.06 82.08 Z" />
<path fill="honeydew" opacity="1.00" d=" M 1159.64 57.65 C 1169.47 49.94 1182.78 48.50 1194.80 50.35 C 1195.49 55.87 1195.04 61.45 1195.14 67.00 C 1195.05 73.95 1195.36 80.91 1195.00 87.85 C 1187.24 86.32 1179.23 84.59 1171.37 86.48 C 1162.69 88.16 1154.74 93.96 1151.20 102.16 C 1148.86 107.08 1148.24 112.59 1148.33 117.98 C 1148.44 134.65 1148.31 151.33 1148.40 168.00 C 1148.37 171.20 1148.71 174.46 1147.85 177.59 C 1134.36 177.61 1120.87 177.60 1107.39 177.59 C 1107.17 135.80 1107.32 93.99 1107.32 52.20 C 1120.54 51.80 1133.81 51.96 1147.04 52.11 C 1147.55 59.42 1146.99 66.74 1147.28 74.05 C 1150.43 67.94 1153.89 61.71 1159.64 57.65 Z" />
<path fill="honeydew" opacity="1.00" d=" M 701.84 52.11 C 715.45 51.98 729.08 51.79 742.68 52.21 C 742.76 76.46 742.65 100.72 742.71 124.98 C 742.83 130.96 743.55 137.59 747.84 142.16 C 752.20 146.74 759.03 147.62 765.04 147.19 C 772.94 146.70 780.05 141.20 782.92 133.88 C 786.71 125.07 785.39 115.31 785.61 106.00 C 785.79 88.03 785.27 70.05 785.85 52.11 C 799.45 51.98 813.08 51.79 826.67 52.21 C 826.67 94.00 826.80 135.80 826.61 177.59 C 813.46 177.61 800.31 177.59 787.17 177.60 C 786.21 171.79 786.98 165.89 786.76 160.04 C 782.13 166.62 776.28 172.42 768.99 175.98 C 755.69 182.81 739.46 182.59 725.65 177.39 C 717.12 174.29 710.47 167.31 706.88 159.08 C 702.84 149.62 701.65 139.20 701.62 128.99 C 701.58 104.99 701.66 80.99 701.58 56.99 C 701.59 55.36 701.71 53.73 701.84 52.11 Z" />
<path fill="honeydew" opacity="1.00" d=" M 836.82 52.12 C 850.85 51.89 864.90 51.97 878.93 52.06 C 880.81 55.60 881.38 59.62 882.52 63.43 C 889.17 87.27 895.67 111.16 902.41 134.97 C 902.93 133.96 903.46 132.94 903.80 131.84 C 909.80 109.90 916.02 88.03 922.13 66.12 C 923.54 61.49 924.49 56.71 926.20 52.17 C 940.05 51.81 953.94 52.00 967.80 52.08 C 954.98 91.06 941.74 129.91 928.80 168.85 C 927.85 171.79 926.96 174.76 925.61 177.54 C 909.90 177.60 894.18 177.71 878.48 177.48 C 866.16 141.36 854.29 105.06 842.14 68.86 C 840.40 63.27 838.12 57.84 836.82 52.12 Z" />
</g>
<g id="#ffffffff">
<path fill="honeydew" opacity="1.00" d=" M 341.43 206.32 C 347.22 205.54 353.10 205.93 358.93 206.03 C 359.42 206.89 359.88 207.79 360.31 208.70 C 378.52 256.14 396.79 303.56 415.04 350.98 C 417.93 358.92 421.37 366.65 423.95 374.70 C 418.41 374.75 412.88 374.88 407.35 374.62 C 401.48 360.34 396.23 345.80 390.58 331.42 C 389.27 328.43 388.70 324.98 386.63 322.41 C 366.77 322.08 346.87 322.37 327.00 322.28 C 321.87 322.43 316.70 321.85 311.60 322.58 C 304.75 339.85 298.57 357.38 291.64 374.61 C 286.11 374.89 280.57 374.75 275.04 374.70 C 276.55 369.56 278.83 364.71 280.73 359.72 C 300.95 308.58 321.19 257.45 341.43 206.32 M 345.93 231.89 C 337.49 253.82 329.09 275.76 320.69 297.70 C 319.36 301.28 317.59 304.74 317.04 308.56 C 338.59 308.55 360.14 308.52 381.69 308.57 C 371.11 279.95 360.73 251.23 349.82 222.73 C 348.03 225.55 347.11 228.79 345.93 231.89 Z" />
<path fill="honeydew" opacity="1.00" d=" M 815.97 215.28 C 820.84 215.14 825.72 215.08 830.59 215.35 C 830.63 268.45 830.62 321.56 830.59 374.66 C 825.72 374.94 820.83 374.87 815.96 374.73 C 815.48 370.84 815.67 366.91 815.68 363.00 C 815.69 318.00 815.68 273.00 815.69 228.00 C 815.70 223.76 815.42 219.50 815.97 215.28 Z" />
<path fill="honeydew" opacity="1.00" d=" M 854.33 215.32 C 859.19 215.11 864.07 215.13 868.94 215.28 C 869.47 232.17 869.00 249.09 869.16 266.00 C 869.16 297.66 869.16 329.33 869.16 361.00 C 869.14 365.57 869.34 370.16 868.95 374.73 C 864.07 374.89 859.19 374.91 854.32 374.69 C 854.20 321.57 854.19 268.44 854.33 215.32 Z" />
<path fill="honeydew" opacity="1.00" d=" M 523.87 216.15 C 528.78 215.97 533.71 215.91 538.62 216.25 C 538.93 228.39 538.03 240.60 539.01 252.69 C 547.08 252.95 555.17 252.45 563.24 252.86 C 563.61 256.94 563.62 261.05 563.24 265.14 C 555.17 265.55 547.09 265.05 539.01 265.31 C 538.77 266.51 538.62 267.73 538.58 268.96 C 538.67 295.63 538.57 322.30 538.63 348.97 C 538.71 353.69 539.15 359.67 543.98 362.05 C 549.99 364.91 556.83 363.18 563.20 363.07 C 563.56 367.27 563.81 371.54 563.09 375.72 C 553.09 376.00 542.32 377.64 533.03 372.97 C 525.84 369.22 523.95 360.40 523.76 352.97 C 523.55 323.77 523.84 294.56 523.63 265.36 C 516.56 264.85 509.44 265.89 502.41 264.89 C 502.27 260.96 502.27 257.03 502.41 253.11 C 509.44 252.11 516.57 253.15 523.63 252.64 C 523.94 240.48 523.37 228.30 523.87 216.15 Z" />
<path fill="honeydew" opacity="1.00" d=" M 607.49 252.68 C 621.04 247.75 637.06 247.62 649.62 255.36 C 657.15 259.63 662.71 266.54 666.78 274.06 C 666.95 267.00 666.54 259.94 666.93 252.88 C 671.83 252.67 676.78 252.39 681.67 253.06 C 681.76 282.70 681.67 312.35 681.71 342.00 C 681.48 354.64 682.38 367.37 680.64 379.94 C 678.95 392.56 674.00 405.64 663.54 413.53 C 652.38 422.11 637.68 423.83 624.03 423.38 C 611.07 422.86 597.55 419.19 587.88 410.14 C 581.42 404.15 577.50 395.61 576.95 386.84 C 581.85 386.58 586.84 386.11 591.70 387.04 C 593.39 393.53 596.51 399.88 602.13 403.84 C 612.37 411.22 625.87 412.02 637.95 410.02 C 647.75 408.43 656.85 402.29 661.19 393.25 C 668.30 379.27 666.57 363.10 666.78 347.94 C 660.59 360.43 648.99 370.59 634.95 372.75 C 621.91 374.43 607.92 372.46 596.67 365.35 C 583.77 357.35 576.46 342.81 573.90 328.22 C 571.16 312.12 571.79 294.88 578.83 279.90 C 584.46 267.65 594.65 257.23 607.49 252.68 M 620.32 262.34 C 608.67 264.04 598.79 272.26 593.72 282.70 C 587.17 296.14 585.79 311.85 588.74 326.42 C 590.95 336.77 596.02 346.89 604.55 353.44 C 613.73 360.59 626.34 362.35 637.45 359.52 C 647.44 356.89 655.61 349.37 660.27 340.29 C 667.44 326.51 668.26 310.09 664.78 295.13 C 662.16 283.97 656.29 272.86 646.23 266.77 C 638.61 261.89 629.10 261.01 620.32 262.34 Z" />
<path fill="honeydew" opacity="1.00" d=" M 714.04 260.07 C 722.90 252.66 734.66 249.87 745.97 249.35 C 756.60 248.91 767.71 249.76 777.35 254.67 C 783.79 257.90 789.03 263.47 791.76 270.15 C 794.74 277.01 795.17 284.62 795.11 292.01 C 795.11 316.35 795.12 340.70 795.09 365.05 C 795.03 368.45 795.86 371.78 796.83 375.02 C 792.27 375.16 787.70 375.18 783.15 374.96 C 780.48 368.23 781.69 360.80 781.13 353.75 C 777.29 358.05 774.39 363.16 769.96 366.94 C 762.99 373.57 753.58 377.18 744.07 377.97 C 731.90 379.16 718.74 377.78 708.56 370.46 C 701.22 365.33 696.72 356.80 695.82 347.98 C 694.80 338.98 695.96 329.09 701.76 321.80 C 706.87 315.25 714.74 311.67 722.53 309.40 C 736.97 305.35 752.05 304.78 766.82 302.57 C 771.58 301.83 777.04 299.91 778.89 294.99 C 781.01 288.80 780.48 281.80 778.24 275.72 C 775.16 267.83 766.81 263.54 758.79 262.52 C 747.09 260.97 733.72 261.18 724.28 269.25 C 718.22 274.28 716.01 282.24 715.49 289.80 C 710.62 290.28 705.70 290.17 700.82 289.95 C 700.99 278.78 705.37 267.37 714.04 260.07 M 769.05 313.21 C 757.41 315.22 745.61 316.41 734.08 319.03 C 726.45 320.98 718.16 323.76 713.49 330.54 C 707.22 340.27 710.83 354.39 720.41 360.60 C 730.66 367.76 744.33 366.66 755.55 362.54 C 767.30 358.28 777.04 348.08 779.41 335.63 C 780.80 326.77 780.09 317.74 780.12 308.81 C 776.69 310.87 773.03 312.59 769.05 313.21 Z" />
<path fill="honeydew" opacity="1.00" d=" M 908.13 258.07 C 920.82 249.22 937.43 247.46 952.28 250.76 C 965.99 253.82 977.60 263.64 983.88 276.08 C 990.35 288.83 993.16 303.51 992.06 317.74 C 960.92 317.94 929.77 317.60 898.64 317.90 C 898.36 330.34 902.23 343.16 910.15 352.87 C 917.47 361.93 929.42 366.56 940.94 365.73 C 950.50 365.44 960.18 361.86 966.68 354.65 C 972.00 349.19 974.64 341.92 977.13 334.87 C 981.90 334.19 986.74 334.50 991.54 334.70 C 988.95 349.17 981.20 363.63 968.21 371.23 C 954.33 379.09 937.22 380.01 921.96 376.19 C 907.77 372.67 896.18 361.89 890.33 348.66 C 883.48 333.04 882.16 315.33 884.76 298.60 C 887.37 282.96 894.78 267.27 908.13 258.07 M 915.18 270.19 C 905.14 278.87 899.59 292.11 898.64 305.18 C 924.85 305.33 951.08 305.37 977.29 305.16 C 977.14 292.12 971.94 278.72 961.94 270.10 C 949.04 258.94 928.05 258.99 915.18 270.19 Z" />
<path fill="honeydew" opacity="1.00" d=" M 452.01 269.01 C 460.74 256.61 476.27 250.20 491.21 251.09 C 491.58 256.01 491.58 260.96 491.22 265.88 C 481.77 265.76 472.01 267.67 464.19 273.24 C 452.84 280.86 446.31 294.44 446.04 307.95 C 445.80 330.20 446.26 352.46 445.83 374.70 C 440.95 374.81 436.08 374.81 431.20 374.69 C 430.93 334.10 431.05 293.50 431.14 252.91 C 435.66 252.61 440.22 252.46 444.73 253.01 C 445.02 262.40 444.49 271.80 444.95 281.18 C 447.41 277.18 449.04 272.69 452.01 269.01 Z" />
<path fill="honeydew" opacity="1.00" d=" M 1029.94 267.98 C 1038.84 256.26 1054.02 249.98 1068.60 251.25 C 1068.62 256.08 1068.62 260.91 1068.60 265.74 C 1062.99 266.15 1057.26 266.17 1051.89 268.07 C 1039.79 271.83 1029.89 281.66 1025.84 293.65 C 1022.07 303.67 1023.35 314.53 1023.13 325.00 C 1022.96 341.56 1023.45 358.14 1022.89 374.69 C 1018.03 374.81 1013.17 374.83 1008.32 374.66 C 1008.11 334.12 1008.21 293.55 1008.27 253.01 C 1012.78 252.47 1017.33 252.61 1021.85 252.90 C 1022.18 262.35 1021.65 271.82 1022.08 281.27 C 1024.64 276.81 1026.63 271.98 1029.94 267.98 Z" />
<path fill="honeydew" opacity="1.00" d=" M 1076.90 252.88 C 1082.08 252.91 1087.54 251.98 1092.55 253.30 C 1105.11 284.93 1117.14 316.80 1129.50 348.52 C 1130.63 350.99 1130.95 353.97 1132.88 356.00 C 1145.55 321.77 1157.63 287.31 1170.29 253.08 C 1175.15 252.32 1180.09 252.72 1184.99 252.90 C 1169.77 294.50 1153.78 335.84 1138.31 377.36 C 1134.06 388.19 1130.62 399.50 1124.30 409.37 C 1120.64 415.19 1114.28 418.92 1107.46 419.55 C 1101.29 420.04 1094.94 420.35 1088.89 418.88 C 1088.48 414.79 1088.55 410.68 1088.79 406.59 C 1096.30 407.24 1105.18 408.98 1111.34 403.35 C 1117.37 397.19 1119.82 388.60 1122.97 380.79 C 1123.88 377.86 1125.97 374.72 1124.34 371.67 C 1109.77 335.50 1095.31 299.28 1080.78 263.09 C 1079.39 259.72 1077.92 256.38 1076.90 252.88 Z" />
</g>
</svg>
