<?xml version="1.0" encoding="UTF-8" ?>
<!DOCTYPE svg PUBLIC "-//W3C//DTD SVG 1.1//EN" "http://www.w3.org/Graphics/SVG/1.1/DTD/svg11.dtd">
<svg width="512pt" height="512pt" viewBox="0 0 512 512" version="1.1" xmlns="http://www.w3.org/2000/svg">
<g>
<path fill="#696969" opacity="1.00" d=" M 105.24 0.00 L 356.29 0.00 C 371.35 0.79 386.24 5.64 398.58 14.37 C 420.36 29.32 433.68 55.56 432.89 81.98 C 432.89 142.67 432.89 203.36 432.89 264.05 C 432.82 268.90 433.37 273.98 431.39 278.56 C 428.47 285.91 420.86 291.08 412.94 290.98 C 405.20 291.10 397.69 286.23 394.63 279.12 C 392.37 274.41 392.94 269.05 392.89 263.99 C 392.88 202.64 392.92 141.30 392.87 79.95 C 392.92 67.59 386.82 55.44 376.91 48.06 C 369.83 42.64 360.90 39.87 352.01 40.00 C 270.68 40.00 189.34 40.00 108.01 40.00 C 101.54 39.91 95.06 41.30 89.26 44.18 C 75.88 50.68 66.85 65.10 67.02 80.00 C 66.98 193.68 67.01 307.36 67.00 421.03 C 67.12 428.32 66.41 435.79 68.53 442.88 C 72.04 455.58 82.27 466.14 94.84 470.06 C 100.67 472.07 106.91 472.07 113.00 472.00 C 140.34 472.00 167.68 471.98 195.01 472.01 C 201.94 471.94 208.70 475.82 212.19 481.79 C 216.17 488.34 215.86 497.18 211.40 503.41 C 207.91 508.52 201.97 511.70 195.81 512.00 L 103.71 512.00 C 87.44 511.19 71.39 505.54 58.49 495.54 C 37.71 479.96 25.71 453.86 27.00 427.95 C 27.01 311.95 26.99 195.95 27.01 79.94 C 26.89 58.04 36.39 36.36 52.48 21.52 C 66.64 8.19 85.80 0.39 105.24 0.00 Z" />
<path fill="#696969" opacity="1.00" d=" M 124.08 120.20 C 151.71 119.73 179.37 120.14 207.02 120.00 C 249.04 120.01 291.05 119.98 333.07 120.02 C 340.00 120.00 346.74 123.93 350.16 129.95 C 354.04 136.44 353.72 145.14 349.36 151.31 C 345.57 156.93 338.81 160.26 332.06 160.00 C 263.70 159.99 195.34 160.02 126.98 159.99 C 119.80 160.08 112.79 155.96 109.38 149.64 C 106.23 144.02 106.07 136.85 108.99 131.11 C 111.82 125.29 117.66 121.06 124.08 120.20 Z" />
<path fill="#696969" opacity="1.00" d=" M 124.13 200.20 C 148.41 199.74 172.73 200.13 197.03 200.00 C 242.35 200.01 287.67 199.98 332.98 200.01 C 339.95 199.97 346.74 203.92 350.18 209.97 C 354.05 216.48 353.71 225.20 349.31 231.37 C 345.52 236.96 338.77 240.26 332.04 240.01 C 263.68 239.99 195.33 240.02 126.98 239.99 C 119.79 240.08 112.77 235.95 109.37 229.62 C 106.23 224.00 106.07 216.83 108.99 211.09 C 111.84 205.27 117.69 201.04 124.13 200.20 Z" />
<path fill="#696969" opacity="1.00" d=" M 124.11 280.20 C 159.73 279.73 195.39 280.14 231.02 279.99 C 239.54 279.53 247.92 285.04 250.76 293.09 C 253.75 300.88 251.14 310.35 244.59 315.51 C 241.07 318.40 236.55 319.98 232.01 319.99 C 198.69 320.02 165.37 319.99 132.05 320.00 C 127.78 320.02 123.32 320.26 119.32 318.50 C 111.28 315.34 105.97 306.55 107.00 297.97 C 107.75 289.04 115.21 281.29 124.11 280.20 Z" />
<path fill="#696969" opacity="1.00" d=" M 319.45 321.71 C 344.57 314.96 371.79 317.73 395.47 328.28 C 427.88 342.49 454.10 367.66 475.96 394.98 C 480.48 400.89 486.22 407.01 485.96 415.00 C 486.22 421.91 481.80 427.56 477.79 432.70 C 458.48 457.27 435.88 479.93 408.44 495.30 C 390.25 505.47 369.69 511.86 348.75 512.00 L 344.71 512.00 C 326.41 511.32 308.45 506.17 292.22 497.79 C 263.12 482.76 239.31 459.32 219.13 433.86 C 215.75 429.29 211.61 424.87 210.46 419.11 C 209.16 413.33 210.78 407.16 214.36 402.50 C 222.89 390.81 232.39 379.84 242.57 369.57 C 264.03 348.06 289.71 329.53 319.45 321.71 M 309.46 368.36 C 288.23 379.66 270.80 396.80 255.37 415.00 C 269.37 431.52 284.99 447.06 303.60 458.34 C 317.53 466.75 333.57 472.45 350.00 471.93 C 366.05 471.49 381.42 465.35 394.84 456.85 C 412.41 445.68 427.22 430.77 440.67 415.00 C 430.61 403.20 419.84 391.92 407.66 382.28 C 393.19 370.83 376.43 361.34 357.93 358.73 C 341.25 356.24 324.18 360.50 309.46 368.36 Z" />
<path fill="#696969" opacity="1.00" d=" M 341.54 377.75 C 352.59 375.52 364.60 378.46 373.24 385.75 C 380.50 391.76 385.41 400.53 386.62 409.89 C 388.04 420.00 385.14 430.62 378.75 438.59 C 372.75 446.21 363.72 451.38 354.10 452.62 C 344.21 454.01 333.83 451.25 325.93 445.15 C 318.02 439.16 312.64 429.94 311.37 420.10 C 309.95 409.95 312.87 399.29 319.31 391.32 C 324.82 384.37 332.83 379.48 341.54 377.75 Z" />
</g>
</svg>
